<svg xmlns="http://www.w3.org/2000/svg" viewBox="0 0 541.35 87.66"><defs><style>.cls-1{fill:#fff;}</style></defs><title>storiesgo-logo-header</title><g id="Camada_2" data-name="Camada 2"><g id="Camada_1-2" data-name="Camada 1"><path class="cls-1" d="M8,87.66H0V8H8V0H47.81V15.94H15.94V31.87H39.84V47.81H15.94V87.66Z"/><path class="cls-1" d="M98.31,87.66H58.47v-8h-8V23.91h8v-8H98.31v8h8V55.78h-8v8H66.43v8h39.84V87.66ZM82.37,47.81h8V31.87H66.43V47.81H82.37Z"/><path class="cls-1" d="M163.21,87.66H123.37v-8h-8V23.91h8v-8h39.84v8h8V55.78h-8v8H131.33v8h39.84V87.66ZM147.27,47.81h8V31.87H131.33V47.81h15.94Z"/><path class="cls-1" d="M228.11,87.66H188.27v-8h-8V23.91h8v-8h31.88V0h15.94V87.66ZM212.17,71.72h8V31.87H196.24V71.72h15.94Z"/><path class="cls-1" d="M285,87.66H253.17v-8h-8V23.91h8v-8H293v8h8V79.69h-8v8Zm-8-15.94h8V31.87H261.14V71.72h15.94Z"/><path class="cls-1" d="M318.07,87.66h-8V15.94H326v8h8v-8h15.94V31.87H334v8h-8V87.66Z"/><path class="cls-1" d="M397.22,87.66H357.38v-8h-8V47.81h8v-8h31.88v-8H357.38V15.94h39.84v8h8V87.66ZM381.28,71.72h8V55.78H365.35V71.72h15.94Z"/><path class="cls-1" d="M470.09,87.66h-8V31.87h-8V87.66H438.22V31.87h-8V87.66H414.31V15.94h55.78v8h8V87.66Z"/><path class="cls-1" d="M533.38,87.66H493.54v-8h-8V47.81h8v-8h31.88v-8H493.54V15.94h39.84v8h8V87.66ZM517.44,71.72h8V55.78H501.51V71.72h15.94Z"/></g></g></svg>