<svg xmlns="http://www.w3.org/2000/svg" viewBox="0 0 269.38 109.54"><defs><style>.cls-1{fill:#fff;}.cls-2{fill:#ea5453;}</style></defs><title>logo</title><g id="Camada_2" data-name="Camada 2"><g id="Camada_1-2" data-name="Camada 1"><path class="cls-1" d="M223.11,2a26.3,26.3,0,0,1,3.1,1.9c.8.56,1.56,1.17,2.3,1.8a25.11,25.11,0,0,1,2.56,2.46,14.32,14.32,0,0,1,2,3,19.65,19.65,0,0,1,17.4,1,33.75,33.75,0,0,1,4,2.43c1,.72,2,1.5,2.94,2.31a30.89,30.89,0,0,1,3.28,3.15,19.35,19.35,0,0,1,4.21,15.32,22.78,22.78,0,0,1-1.38,5.18,24.87,24.87,0,0,1-2.34,4.6,31.5,31.5,0,0,1,6.46,11,33.49,33.49,0,0,1,1.62,7.63c.63,6.46,0,13-4.17,18.12a31,31,0,0,1-11.7,8.87,36.77,36.77,0,0,1-6.63,2.18,22.39,22.39,0,0,1-1.18,4.08c-1.65,4.17-4.15,8.05-8.41,10a23.5,23.5,0,0,1-10.29,2.18,26.69,26.69,0,0,1-10.44-2.26,21.64,21.64,0,0,1-4.21-2.37,20.93,20.93,0,0,1-6.19-7,11.78,11.78,0,0,1-5,4.69,18.26,18.26,0,0,1-8,1.7,20.88,20.88,0,0,1-8.16-1.76,17.88,17.88,0,0,1-3.29-1.85,16.67,16.67,0,0,1-6.4-9.33,18.64,18.64,0,0,1-.54-3.16c0-.38-.07-.76-.11-1.15-.44-4.41,1.88-9,4.88-12.3a13.47,13.47,0,0,1,2.85-2.18h-.1a16.17,16.17,0,0,1-6.27-1.36,13.59,13.59,0,0,1-2.53-1.42,12.82,12.82,0,0,1-4.91-7.17,14,14,0,0,1-.42-2.43c0-.29,0-.59-.08-.88-.34-3.4,1.44-6.89,3.75-9.46a11.41,11.41,0,0,1,8-3.2,21.49,21.49,0,0,1-6.55-10.64,22.9,22.9,0,0,1-.69-4c0-.49-.09-1-.14-1.47-.56-5.66,2.4-11.47,6.25-15.75,5.5-5.59,15.07-7,22.28-3.21a20.31,20.31,0,0,1,4.28-7.21A15.22,15.22,0,0,1,223.11,2Z"/><path class="cls-1" d="M151.55,95.81a17.23,17.23,0,0,1,.38-1.73,14.5,14.5,0,0,1,.73-2.07,8.88,8.88,0,0,1,9.54-5.51c2.91.59,6,2.09,7.5,4.63a11.63,11.63,0,0,1,1.22,2.06,10.23,10.23,0,0,1,.69,7,10.4,10.4,0,0,1-.84,2.12,11.69,11.69,0,0,1-3.21,3.85A10.75,10.75,0,0,1,163,108.2a8.93,8.93,0,0,1-6.31-1.49,11.71,11.71,0,0,1-2.15-1.61A9.85,9.85,0,0,1,151.31,98,14,14,0,0,1,151.55,95.81Z"/><path class="cls-1" d="M130.67,103.31a13.11,13.11,0,0,1-.62-3.26,7.47,7.47,0,0,1,5.06-7.73c2.39-.66,5.27-.7,7.35.63a9.07,9.07,0,0,1,1.7,1.08,8.37,8.37,0,0,1,3.32,6.84,9.81,9.81,0,0,1-.95,4.09,9,9,0,0,1-2.61,3.28,7.55,7.55,0,0,1-5.29,1.27,9.76,9.76,0,0,1-2.21-.39A8.21,8.21,0,0,1,131.3,105,10.32,10.32,0,0,1,130.67,103.31Z"/><path class="cls-1" d="M115.11,94.87a8.64,8.64,0,0,1-.25-1,8.8,8.8,0,0,1-.17-1.24,5,5,0,0,1,3.42-5.22,6.38,6.38,0,0,1,5,.42,6.79,6.79,0,0,1,1.15.73,5.86,5.86,0,0,1,2.13,3.34,6.13,6.13,0,0,1,.11,1.29,6.6,6.6,0,0,1-.64,2.76,6,6,0,0,1-1.76,2.22,5.08,5.08,0,0,1-3.57.86,6.3,6.3,0,0,1-1.5-.27A5.54,5.54,0,0,1,115.54,96,7.82,7.82,0,0,1,115.11,94.87Z"/><path class="cls-2" d="M187.21,67.92V42.28c0-7.92,5-13.37,12.56-13.37,7.27,0,12.28,5.45,12.49,13.22a.9.9,0,0,1-.94,1h-4.65c-.58,0-.94-.36-1-1-.21-4.43-2.39-7-5.88-7-3.7,0-6,2.68-6,7V68.21c0,4.28,2.54,7,6.24,7s6.18-2.69,6.18-6.46V58.84h-5a.9.9,0,0,1-1-1V54a.91.91,0,0,1,1-1h8.57a2.71,2.71,0,0,1,3,3V68.35c0,7.48-5.23,13-12.78,13S187.21,75.83,187.21,67.92Z"/><path class="cls-2" d="M215.38,67.63v-25c0-8.13,5.31-13.65,12.86-13.65S241,34.51,241,42.13v26c0,7.63-5.23,13.15-12.78,13.15S215.38,75.76,215.38,67.63Zm19,.79V41.84c0-4-2.46-6.75-6.17-6.75S222,37.85,222,42.35V67.92c0,4.5,2.55,7.26,6.25,7.26S234.41,72.42,234.41,68.42Z"/><path class="cls-2" d="M245.6,77.36a3.85,3.85,0,0,1,4-4,3.9,3.9,0,0,1,4,4,3.94,3.94,0,0,1-4,4A3.89,3.89,0,0,1,245.6,77.36Zm.8-8.72v-38a.9.9,0,0,1,1-.95h4.36a.88.88,0,0,1,.94.95v38a.9.9,0,0,1-.94,1h-4.36A.92.92,0,0,1,246.4,68.64Z"/><path class="cls-1" d="M0,67.59a.69.69,0,0,1,.73-.72h2.9a.69.69,0,0,1,.73.72c.22,6.39,2.9,9.73,7.84,9.73s7.7-2.61,7.7-7.62C19.9,57.28.36,54.52.36,40.35.36,33.6,5,29.1,12.06,29.1c6.61,0,11.18,5.37,11.55,13.43a.69.69,0,0,1-.73.73H20a.69.69,0,0,1-.72-.73c-.29-6.39-2.84-9.37-7.19-9.37-4.8,0-7.34,2.47-7.34,7.19,0,11.7,19.54,14.39,19.54,29.35,0,7-4.8,11.69-12.06,11.69S.22,75.87,0,67.59Z"/><path class="cls-1" d="M47.86,30.55v2.61a.69.69,0,0,1-.73.73H38.42V79.94a.69.69,0,0,1-.73.73h-2.9a.69.69,0,0,1-.73-.73v-46H25.35a.69.69,0,0,1-.73-.73V30.55a.69.69,0,0,1,.73-.73H47.13A.69.69,0,0,1,47.86,30.55Z"/><path class="cls-1" d="M48.08,67.88V42.61c0-8,5.08-13.44,12.34-13.44s12.35,5.45,12.35,12.71V68.61c0,7.26-5.08,12.71-12.35,12.71S48.08,75.87,48.08,67.88Zm20.33.73V41.88c0-5-3.26-8.64-8-8.64s-8,3.63-8,9.37V67.88c0,5.74,3.26,9.37,8,9.37S68.41,73.62,68.41,68.61Z"/><path class="cls-1" d="M77.92,79.94V42.17c0-7.63,4.87-13.07,11.92-13.07s11.91,5.44,11.91,13.07v5.37c0,6-3.12,10.25-7.34,12l8.36,20.26a.59.59,0,0,1-.59.88H99a.77.77,0,0,1-.8-.59L90.35,60.4H82.28V79.94a.69.69,0,0,1-.72.73H78.65A.7.7,0,0,1,77.92,79.94ZM89.76,56.33c4.58,0,7.63-3.63,7.63-8.79V42.17c0-5.37-3-9-7.55-9s-7.56,3.64-7.56,9V56.33Z"/><path class="cls-1" d="M108.21,29.82h2.91a.69.69,0,0,1,.72.73V79.94a.69.69,0,0,1-.72.73h-2.91a.69.69,0,0,1-.73-.73V30.55A.69.69,0,0,1,108.21,29.82Z"/><path class="cls-1" d="M117.58,68.32V42.17c0-7,4.86-12.49,11.84-12.49H137a.69.69,0,0,1,.73.72V33a.69.69,0,0,1-.73.73h-7.55c-4.43,0-7.48,3.63-7.48,8.42V52.85h13.29a.68.68,0,0,1,.72.72v2.62a.68.68,0,0,1-.72.72H121.94V68.32c0,4.79,3,8.42,7.48,8.42H137a.69.69,0,0,1,.73.73v2.61a.69.69,0,0,1-.73.73h-7.55C122.44,80.81,117.58,75.36,117.58,68.32Z"/><path class="cls-1" d="M139.87,67.59a.69.69,0,0,1,.73-.72h2.9a.69.69,0,0,1,.73.72c.22,6.39,2.91,9.73,7.85,9.73s7.69-2.61,7.69-7.62c0-12.42-19.53-15.18-19.53-29.35,0-6.75,4.64-11.25,11.69-11.25,6.61,0,11.19,5.37,11.55,13.43a.69.69,0,0,1-.73.73h-2.9a.69.69,0,0,1-.73-.73c-.29-6.39-2.83-9.37-7.19-9.37-4.79,0-7.34,2.47-7.34,7.19,0,11.7,19.54,14.39,19.54,29.35,0,7-4.79,11.69-12,11.69S140.09,75.87,139.87,67.59Z"/></g></g></svg>